<mxfile host="app.diagrams.net" modified="2023-02-05T01:40:00.579Z" agent="5.0 (Windows NT 10.0; WOW64) AppleWebKit/537.36 (KHTML, like Gecko) Chrome/75.0.3770.100 Safari/537.36" etag="oWWk9jJ2vIULF-5E8YC4" version="20.8.16" type="github">
  <diagram id="prtHgNgQTEPvFCAcTncT" name="Page-1">
    <mxGraphModel dx="1154" dy="521" grid="1" gridSize="10" guides="1" tooltips="1" connect="1" arrows="1" fold="1" page="1" pageScale="1" pageWidth="827" pageHeight="1169" math="0" shadow="0">
      <root>
        <mxCell id="0" />
        <mxCell id="1" parent="0" />
        <mxCell id="dNxyNK7c78bLwvsdeMH5-19" value="Pool" style="swimlane;html=1;childLayout=stackLayout;resizeParent=1;resizeParentMax=0;horizontal=0;startSize=20;horizontalStack=0;movable=0;resizable=0;rotatable=0;deletable=0;editable=0;connectable=0;" parent="1" vertex="1">
          <mxGeometry x="120" y="120" width="780" height="350" as="geometry" />
        </mxCell>
        <mxCell id="dNxyNK7c78bLwvsdeMH5-21" value="江苏管理员" style="swimlane;html=1;startSize=20;horizontal=0;" parent="dNxyNK7c78bLwvsdeMH5-19" vertex="1">
          <mxGeometry x="20" width="760" height="150" as="geometry" />
        </mxCell>
        <mxCell id="dnr6v99prlty-qJEZTvb-3" style="edgeStyle=orthogonalEdgeStyle;rounded=0;orthogonalLoop=1;jettySize=auto;html=1;entryX=0;entryY=0.5;entryDx=0;entryDy=0;exitX=1;exitY=0.5;exitDx=0;exitDy=0;exitPerimeter=0;" edge="1" parent="dNxyNK7c78bLwvsdeMH5-21" source="dnr6v99prlty-qJEZTvb-1" target="dnr6v99prlty-qJEZTvb-2">
          <mxGeometry relative="1" as="geometry">
            <mxPoint x="110" y="55" as="sourcePoint" />
          </mxGeometry>
        </mxCell>
        <mxCell id="dnr6v99prlty-qJEZTvb-1" value="开始" style="strokeWidth=2;html=1;shape=mxgraph.flowchart.start_1;whiteSpace=wrap;" vertex="1" parent="dNxyNK7c78bLwvsdeMH5-21">
          <mxGeometry x="40" y="55" width="60" height="40" as="geometry" />
        </mxCell>
        <mxCell id="dnr6v99prlty-qJEZTvb-2" value="为区域内外部账号&lt;br&gt;A添加山东区域（待开发）" style="whiteSpace=wrap;html=1;strokeWidth=2;" vertex="1" parent="dNxyNK7c78bLwvsdeMH5-21">
          <mxGeometry x="150" y="30" width="130" height="90" as="geometry" />
        </mxCell>
        <mxCell id="dNxyNK7c78bLwvsdeMH5-20" value="山东管理员" style="swimlane;html=1;startSize=20;horizontal=0;" parent="dNxyNK7c78bLwvsdeMH5-19" vertex="1">
          <mxGeometry x="20" y="150" width="760" height="200" as="geometry" />
        </mxCell>
        <mxCell id="dnr6v99prlty-qJEZTvb-7" style="edgeStyle=orthogonalEdgeStyle;rounded=0;orthogonalLoop=1;jettySize=auto;html=1;entryX=0;entryY=0.5;entryDx=0;entryDy=0;" edge="1" parent="dNxyNK7c78bLwvsdeMH5-20" source="dnr6v99prlty-qJEZTvb-5" target="dnr6v99prlty-qJEZTvb-6">
          <mxGeometry relative="1" as="geometry" />
        </mxCell>
        <mxCell id="dnr6v99prlty-qJEZTvb-5" value="可见待处理任务&lt;br&gt;处理跨区调整申请任务" style="whiteSpace=wrap;html=1;strokeWidth=2;" vertex="1" parent="dNxyNK7c78bLwvsdeMH5-20">
          <mxGeometry x="150" y="60" width="130" height="50" as="geometry" />
        </mxCell>
        <mxCell id="dnr6v99prlty-qJEZTvb-10" style="edgeStyle=orthogonalEdgeStyle;rounded=0;orthogonalLoop=1;jettySize=auto;html=1;entryX=0;entryY=0.5;entryDx=0;entryDy=0;" edge="1" parent="dNxyNK7c78bLwvsdeMH5-20" source="dnr6v99prlty-qJEZTvb-6" target="dnr6v99prlty-qJEZTvb-9">
          <mxGeometry relative="1" as="geometry" />
        </mxCell>
        <mxCell id="dnr6v99prlty-qJEZTvb-11" value="是" style="edgeLabel;html=1;align=center;verticalAlign=middle;resizable=0;points=[];" vertex="1" connectable="0" parent="dnr6v99prlty-qJEZTvb-10">
          <mxGeometry x="-0.2768" y="2" relative="1" as="geometry">
            <mxPoint as="offset" />
          </mxGeometry>
        </mxCell>
        <mxCell id="dnr6v99prlty-qJEZTvb-14" style="edgeStyle=orthogonalEdgeStyle;rounded=0;orthogonalLoop=1;jettySize=auto;html=1;exitX=0.5;exitY=1;exitDx=0;exitDy=0;entryX=0;entryY=0.5;entryDx=0;entryDy=0;" edge="1" parent="dNxyNK7c78bLwvsdeMH5-20" source="dnr6v99prlty-qJEZTvb-6" target="dnr6v99prlty-qJEZTvb-13">
          <mxGeometry relative="1" as="geometry" />
        </mxCell>
        <mxCell id="dnr6v99prlty-qJEZTvb-15" value="否" style="edgeLabel;html=1;align=center;verticalAlign=middle;resizable=0;points=[];" vertex="1" connectable="0" parent="dnr6v99prlty-qJEZTvb-14">
          <mxGeometry x="-0.0216" y="-2" relative="1" as="geometry">
            <mxPoint as="offset" />
          </mxGeometry>
        </mxCell>
        <mxCell id="dnr6v99prlty-qJEZTvb-6" value="同意" style="rhombus;whiteSpace=wrap;html=1;strokeWidth=2;" vertex="1" parent="dNxyNK7c78bLwvsdeMH5-20">
          <mxGeometry x="320" y="50" width="80" height="70" as="geometry" />
        </mxCell>
        <mxCell id="dnr6v99prlty-qJEZTvb-9" value="为用户A添加山东区域权限" style="whiteSpace=wrap;html=1;strokeWidth=2;" vertex="1" parent="dNxyNK7c78bLwvsdeMH5-20">
          <mxGeometry x="470" y="60" width="110" height="50" as="geometry" />
        </mxCell>
        <mxCell id="dnr6v99prlty-qJEZTvb-13" value="为用户A添加山东区域权限" style="whiteSpace=wrap;html=1;strokeWidth=2;" vertex="1" parent="dNxyNK7c78bLwvsdeMH5-20">
          <mxGeometry x="470" y="140" width="110" height="50" as="geometry" />
        </mxCell>
        <mxCell id="dnr6v99prlty-qJEZTvb-17" style="edgeStyle=orthogonalEdgeStyle;rounded=0;orthogonalLoop=1;jettySize=auto;html=1;entryX=0.5;entryY=0;entryDx=0;entryDy=0;" edge="1" parent="dNxyNK7c78bLwvsdeMH5-19" source="dnr6v99prlty-qJEZTvb-2" target="dnr6v99prlty-qJEZTvb-5">
          <mxGeometry relative="1" as="geometry" />
        </mxCell>
      </root>
    </mxGraphModel>
  </diagram>
</mxfile>
